<?xml version="1.0" encoding="utf-8"?>
<!-- Generator: Adobe Illustrator 16.0.0, SVG Export Plug-In . SVG Version: 6.00 Build 0)  -->
<!DOCTYPE svg PUBLIC "-//W3C//DTD SVG 1.1//EN" "http://www.w3.org/Graphics/SVG/1.1/DTD/svg11.dtd">
<svg version="1.1" id="Layer_1" xmlns="http://www.w3.org/2000/svg" xmlns:xlink="http://www.w3.org/1999/xlink" x="0px" y="0px"
	 width="117px" height="30px" viewBox="0 0 117 30" enable-background="new 0 0 117 30" xml:space="preserve">
<path fill="#2A8757" d="M8.835,1.736c0.008,0.005,6.087,4.427,6.087,4.427s-5.534,3.874-3.043,7.47
	c2.49,3.596,4.15,8.853-1.66,12.173c-5.809,3.32-3.874-1.381-3.042-2.49c2.913-3.889-1.95-8.379-3.035-11.933
	C3.645,9.754,3.535,8.166,4.208,6.531C4.535,5.74,7.952,1.094,8.835,1.736z"/>
<path fill="#2A8757" d="M22.709,6.154c0.007,0.004,5.786,3.984,5.786,3.984s-5.26,3.486-2.893,6.724
	c2.367,3.237,3.945,7.968-1.578,10.956c-5.522,2.986-3.683-1.244-2.892-2.242c2.768-3.5-1.854-7.541-2.885-10.74
	c-0.472-1.465-0.577-2.895,0.064-4.366C18.622,9.757,21.87,5.576,22.709,6.154z"/>
<path fill="#2A8757" d="M77.767,6.154c0.008,0.004,5.786,3.984,5.786,3.984s-5.26,3.486-2.893,6.724
	c2.366,3.237,3.944,7.968-1.578,10.956c-5.522,2.986-3.683-1.244-2.893-2.242c2.769-3.5-1.854-7.541-2.884-10.74
	c-0.473-1.465-0.577-2.895,0.063-4.366C73.679,9.757,76.928,5.576,77.767,6.154z"/>
<path fill="#2A8757" d="M42.031,9.62c-2.927-3.01-4.01-1.666-5.571-0.045c-2.246,2.332-4.107,7.185-4.107,9.78
	c0,5.256,0,7.193,7.469,7.193c7.471,0,6.642-2.766,7.195-5.256S47.092,14.827,42.031,9.62z M43.388,20.792
	c-0.283,1.531,0.139,3.23-3.679,3.23c-5.712,0-4.052-6.34-1.316-9.536C42.864,9.262,44.174,16.52,43.388,20.792z"/>
<path fill="#2A8757" d="M57.806,12.526V7.828l-6.364,1.408l1.461,16.379h3.043c0,0,2.333-10.209,6.688-11.869c0,0,0,11.857,0,12.168
	c0,0.012,5.222,0.006,5.738,0.006c0.172,0,0.549-8.874,0.539-9.622c-0.03-2.442-0.296-5.295-1.923-7.25
	C64.223,5.722,57.806,12.526,57.806,12.526z"/>
<path fill="#2A8757" d="M99.455,9.016C96.814,7.75,91.913,6.95,89.221,8.563c-1.045,0.625-1.212,2.642-0.501,3.667
	c1.078,1.558,3.563,0.352,5.14,0.635c1.9,0.342,3.396,1.577,3.438,3.612c-2.136,0.09-4.273,0.264-6.409,0.396
	c0,0-6.961,0.551-4.095,6.421c2.866,5.869,9.828,1.775,10.919-2.184l0.956,3.959h2.729c0.228-1.752,0.401-3.512,0.594-5.268
	C102.403,16.023,103.753,11.074,99.455,9.016z M94.298,21.659c-2.727,2.043-3.409-1.23-2.727-2.598
	c0.54-1.074,4.127-1.78,4.95-0.658c0.024,0.033,0.047,0.07,0.067,0.109C97.15,19.587,95.013,21.124,94.298,21.659z"/>
<polygon fill="#2A8757" points="113.955,1.675 107.677,2.547 108.905,25.921 112.045,25.921 "/>
</svg>
